<svg width="240" height="242" viewBox="0 0 240 242" fill="none" xmlns="http://www.w3.org/2000/svg">
<g clip-path="url(#clip0_2273_7)">
<rect width="240" height="249" fill="#4C2FAD"/>
<path d="M19 204.226L15.4883 205.33V213.67L19 214.761V219.221L-1.30566 212.835V206.151L19 199.751V204.226ZM12.019 212.58V206.42L2.23438 209.493L12.019 212.58ZM5.90186 180.656C7.45003 180.656 8.79997 181.034 9.95166 181.789C11.1034 182.535 11.9482 183.602 12.4863 184.989L19 180.968V185.343L13.0952 188.954L13.0952 192.409H19V196.756H-1.30566V188.558C-1.30566 186.084 -0.635417 184.149 0.705078 182.752C2.03613 181.355 3.76839 180.656 5.90186 180.656ZM9.62598 192.423L9.62598 189.011C9.62598 187.85 9.27197 186.891 8.56396 186.136C7.84652 185.381 6.96387 185.003 5.91602 185.003C4.85872 185.003 3.97135 185.381 3.25391 186.136C2.52702 186.891 2.16357 187.85 2.16357 189.011V192.423H9.62598ZM-1.30566 165.484V161.137H10.9429C13.5955 161.137 15.6393 161.873 17.0742 163.346C18.5091 164.818 19.2266 166.796 19.2266 169.279C19.2266 171.762 18.5091 173.744 17.0742 175.226C15.6299 176.699 13.5861 177.435 10.9429 177.435H-1.30566L-1.30566 173.088H11.2119C12.4769 173.088 13.4681 172.743 14.1855 172.054C14.8936 171.365 15.2476 170.44 15.2476 169.279C15.2476 168.127 14.8888 167.212 14.1714 166.532C13.4539 165.843 12.4674 165.498 11.2119 165.498L-1.30566 165.484ZM-1.30566 143.77V139.422H19V144.832L5.10889 152.606H19V156.953H-1.30566V151.558L12.5996 143.77H-1.30566ZM-1.30566 111.613L7.55859 118.211L19 111.613V116.186L11.127 120.859L14.4971 123.365H19V127.713H-1.30566V123.365H8.56396L-1.30566 116.186V111.613ZM-1.30566 96.6384V92.2913H10.9429C13.5955 92.2913 15.6393 93.0276 17.0742 94.5002C18.5091 95.9729 19.2266 97.9506 19.2266 100.433C19.2266 102.916 18.5091 104.899 17.0742 106.381C15.6299 107.853 13.5861 108.59 10.9429 108.59H-1.30566V104.242H11.2119C12.4769 104.242 13.4681 103.898 14.1855 103.209C14.8936 102.52 15.2476 101.594 15.2476 100.433C15.2476 99.2816 14.8888 98.366 14.1714 97.6863C13.4539 96.9971 12.4674 96.6526 11.2119 96.6526L-1.30566 96.6384ZM-1.30566 65.097H19V69.4441H4.4292L13.5483 75.5755V77.6004L4.41504 83.76H19V88.1072H-1.30566V82.6414L7.81348 76.6092L-1.30566 70.5486V65.097ZM19 47.0784L15.4883 48.1829V56.5233L19 57.6136V62.074L-1.30566 55.6878V49.0042L19 42.6038V47.0784ZM12.019 55.4329V49.2733L2.23438 52.346L12.019 55.4329ZM5.90186 23.5091C7.45003 23.5091 8.79997 23.8867 9.95166 24.642C11.1034 25.3877 11.9482 26.4545 12.4863 27.8421L19 23.8207V28.1962L13.0952 31.807V35.2621H19V39.6092H-1.30566L-1.30566 31.4105C-1.30566 28.9372 -0.635417 27.002 0.705078 25.6048C2.03613 24.2077 3.76839 23.5091 5.90186 23.5091ZM9.62598 35.2762V31.8636C9.62598 30.7025 9.27197 29.7443 8.56396 28.9891C7.84652 28.2339 6.96387 27.8563 5.91602 27.8563C4.85872 27.8563 3.97135 28.2339 3.25391 28.9891C2.52702 29.7443 2.16357 30.7025 2.16357 31.8636V35.2762H9.62598Z" fill="white"/>
<path d="M144.469 97.4062V122.016C144.469 132.693 143.329 141.905 141.051 149.652C138.772 157.335 135.484 163.65 131.188 168.598C126.956 173.48 121.91 177.094 116.051 179.438C110.191 181.781 103.681 182.953 96.5195 182.953C90.7904 182.953 85.4518 182.237 80.5039 180.805C75.556 179.307 71.0964 176.996 67.125 173.871C63.2188 170.746 59.8333 166.807 56.9688 162.055C54.1693 157.237 52.0208 151.508 50.5234 144.867C49.026 138.227 48.2773 130.609 48.2773 122.016V97.4062C48.2773 86.7292 49.4167 77.582 51.6953 69.9648C54.0391 62.2826 57.3268 56 61.5586 51.1172C65.8555 46.2344 70.9336 42.6536 76.793 40.375C82.6523 38.0312 89.1628 36.8594 96.3242 36.8594C102.053 36.8594 107.359 37.6081 112.242 39.1055C117.19 40.5378 121.65 42.7839 125.621 45.8438C129.592 48.9036 132.978 52.8424 135.777 57.6602C138.577 62.4128 140.725 68.1094 142.223 74.75C143.72 81.3255 144.469 88.8776 144.469 97.4062ZM116.246 125.727V93.5977C116.246 88.4544 115.953 83.9622 115.367 80.1211C114.846 76.2799 114.033 73.0247 112.926 70.3555C111.819 67.6211 110.452 65.4076 108.824 63.7148C107.197 62.0221 105.341 60.7852 103.258 60.0039C101.174 59.2227 98.8633 58.832 96.3242 58.832C93.1341 58.832 90.3021 59.4505 87.8281 60.6875C85.4193 61.9245 83.3685 63.9102 81.6758 66.6445C79.9831 69.3138 78.681 72.8945 77.7695 77.3867C76.9232 81.8138 76.5 87.2174 76.5 93.5977V125.727C76.5 130.87 76.7604 135.395 77.2812 139.301C77.8672 143.207 78.7135 146.56 79.8203 149.359C80.9922 152.094 82.3594 154.34 83.9219 156.098C85.5495 157.79 87.4049 159.027 89.4883 159.809C91.6367 160.59 93.9805 160.98 96.5195 160.98C99.6445 160.98 102.411 160.362 104.82 159.125C107.294 157.823 109.378 155.805 111.07 153.07C112.828 150.271 114.13 146.625 114.977 142.133C115.823 137.641 116.246 132.172 116.246 125.727ZM184.418 97.6992H199.457C204.275 97.6992 208.246 96.8854 211.371 95.2578C214.496 93.5651 216.807 91.2214 218.305 88.2266C219.867 85.1667 220.648 81.6185 220.648 77.582C220.648 73.9362 219.932 70.7135 218.5 67.9141C217.133 65.0495 215.017 62.8359 212.152 61.2734C209.288 59.6458 205.674 58.832 201.312 58.832C197.862 58.832 194.672 59.5156 191.742 60.8828C188.812 62.25 186.469 64.1706 184.711 66.6445C182.953 69.1185 182.074 72.1133 182.074 75.6289H153.852C153.852 67.8164 155.935 61.013 160.102 55.2188C164.333 49.4245 169.997 44.8997 177.094 41.6445C184.19 38.3893 192.003 36.7617 200.531 36.7617C210.167 36.7617 218.598 38.3242 225.824 41.4492C233.051 44.5091 238.682 49.0339 242.719 55.0234C246.755 61.013 248.773 68.4349 248.773 77.2891C248.773 81.7812 247.732 86.1432 245.648 90.375C243.565 94.5417 240.57 98.3177 236.664 101.703C232.823 105.023 228.135 107.693 222.602 109.711C217.068 111.664 210.85 112.641 203.949 112.641H184.418V97.6992ZM184.418 119.086V104.535H203.949C211.697 104.535 218.5 105.414 224.359 107.172C230.219 108.93 235.134 111.469 239.105 114.789C243.077 118.044 246.072 121.918 248.09 126.41C250.108 130.837 251.117 135.753 251.117 141.156C251.117 147.797 249.848 153.721 247.309 158.93C244.77 164.073 241.189 168.435 236.566 172.016C232.009 175.596 226.671 178.331 220.551 180.219C214.431 182.042 207.758 182.953 200.531 182.953C194.542 182.953 188.65 182.139 182.855 180.512C177.126 178.819 171.918 176.312 167.23 172.992C162.608 169.607 158.897 165.375 156.098 160.297C153.363 155.154 151.996 149.066 151.996 142.035H180.219C180.219 145.681 181.13 148.936 182.953 151.801C184.776 154.665 187.283 156.911 190.473 158.539C193.728 160.167 197.341 160.98 201.312 160.98C205.805 160.98 209.646 160.167 212.836 158.539C216.091 156.846 218.565 154.503 220.258 151.508C222.016 148.448 222.895 144.9 222.895 140.863C222.895 135.655 221.951 131.488 220.062 128.363C218.174 125.173 215.473 122.829 211.957 121.332C208.441 119.835 204.275 119.086 199.457 119.086H184.418Z" fill="white"/>
<path d="M73.1016 196.797H75.75L71.7891 204.211V208H69.3906V204.211L65.4297 196.797H68.0859L70.5938 201.867L73.1016 196.797ZM80.0194 199.07C80.7173 199.07 81.3631 199.193 81.9569 199.438C82.5558 199.682 83.0636 200.029 83.4803 200.477C83.9022 200.919 84.2225 201.471 84.4412 202.133C84.66 202.789 84.7459 203.513 84.6991 204.305H77.5819C77.7173 204.924 78.009 205.419 78.4569 205.789C78.9048 206.159 79.4256 206.344 80.0194 206.344C80.535 206.344 80.9907 206.214 81.3866 205.953C81.7876 205.688 82.0975 205.318 82.3162 204.844L84.2459 205.766C83.8501 206.5 83.272 207.078 82.5116 207.5C81.7511 207.917 80.9204 208.125 80.0194 208.125C79.1548 208.125 78.3631 207.945 77.6444 207.586C76.9308 207.227 76.3553 206.701 75.9178 206.008C75.4803 205.31 75.2616 204.508 75.2616 203.602C75.2616 202.695 75.4803 201.893 75.9178 201.195C76.3553 200.497 76.9308 199.969 77.6444 199.609C78.3631 199.25 79.1548 199.07 80.0194 199.07ZM80.0194 200.859C79.3944 200.859 78.8605 201.044 78.4178 201.414C77.9803 201.779 77.7017 202.273 77.5819 202.898H82.4647C82.3397 202.273 82.0584 201.779 81.6209 201.414C81.1834 201.044 80.6496 200.859 80.0194 200.859ZM90.2887 199.07C91.0231 199.07 91.6637 199.195 92.2106 199.445C92.7627 199.695 93.1664 200.044 93.4216 200.492L93.5231 199.203H95.6716V208H93.5231L93.4216 206.703C92.9424 207.651 91.8981 208.125 90.2887 208.125C89.7106 208.125 89.1664 208.013 88.6559 207.789C88.1507 207.56 87.7132 207.25 87.3434 206.859C86.9736 206.469 86.6794 205.992 86.4606 205.43C86.2471 204.862 86.1403 204.253 86.1403 203.602C86.1403 202.951 86.2471 202.344 86.4606 201.781C86.6794 201.214 86.9736 200.734 87.3434 200.344C87.7132 199.948 88.1507 199.638 88.6559 199.414C89.1664 199.185 89.7106 199.07 90.2887 199.07ZM90.8981 206.219C91.6065 206.219 92.2028 205.974 92.6872 205.484C93.1768 204.99 93.4216 204.362 93.4216 203.602C93.4216 202.836 93.1768 202.208 92.6872 201.719C92.2028 201.229 91.6065 200.984 90.8981 200.984C90.195 200.984 89.6012 201.229 89.1169 201.719C88.6377 202.208 88.3981 202.836 88.3981 203.602C88.3981 204.357 88.6403 204.982 89.1247 205.477C89.6091 205.971 90.2002 206.219 90.8981 206.219ZM97.6909 199.203H99.8472L99.9409 200.305C100.295 199.841 100.707 199.521 101.175 199.344C101.649 199.161 102.274 199.07 103.05 199.07V200.984C102.061 200.984 101.295 201.221 100.753 201.695C100.212 202.164 99.9409 202.799 99.9409 203.602V208H97.6909V199.203ZM111.624 201.445L109.374 201.594C109.317 201.339 109.161 201.12 108.906 200.938C108.656 200.75 108.354 200.656 107.999 200.656C107.572 200.656 107.229 200.74 106.968 200.906C106.708 201.068 106.577 201.302 106.577 201.609C106.577 201.818 106.653 201.995 106.804 202.141C106.96 202.281 107.14 202.391 107.343 202.469C107.551 202.542 107.843 202.622 108.218 202.711C108.749 202.836 109.195 202.953 109.554 203.062C109.913 203.172 110.252 203.302 110.57 203.453C110.893 203.599 111.14 203.76 111.312 203.938C111.489 204.115 111.627 204.323 111.726 204.562C111.825 204.802 111.869 205.076 111.859 205.383C111.833 206.258 111.486 206.932 110.82 207.406C110.158 207.88 109.234 208.117 108.046 208.117C106.9 208.117 105.981 207.898 105.288 207.461C104.596 207.023 104.205 206.396 104.117 205.578L106.351 205.391C106.429 205.745 106.63 206.021 106.952 206.219C107.275 206.411 107.64 206.508 108.046 206.508C108.494 206.508 108.864 206.417 109.156 206.234C109.447 206.052 109.593 205.797 109.593 205.469C109.593 205.156 109.411 204.898 109.046 204.695C108.687 204.487 108.197 204.312 107.577 204.172C106.937 204.021 106.434 203.883 106.07 203.758C105.705 203.633 105.377 203.474 105.085 203.281C104.799 203.083 104.598 202.854 104.484 202.594C104.374 202.328 104.32 201.995 104.32 201.594C104.32 200.776 104.65 200.151 105.312 199.719C105.973 199.286 106.89 199.07 108.062 199.07C109.109 199.07 109.942 199.271 110.562 199.672C111.187 200.073 111.541 200.664 111.624 201.445ZM122.108 208.125C121.244 208.125 120.452 207.945 119.733 207.586C119.015 207.227 118.437 206.701 117.999 206.008C117.562 205.31 117.343 204.508 117.343 203.602C117.343 202.695 117.562 201.893 117.999 201.195C118.437 200.497 119.015 199.969 119.733 199.609C120.452 199.25 121.244 199.07 122.108 199.07C122.968 199.07 123.757 199.25 124.476 199.609C125.194 199.969 125.772 200.497 126.21 201.195C126.653 201.893 126.874 202.695 126.874 203.602C126.874 204.508 126.653 205.31 126.21 206.008C125.772 206.701 125.194 207.227 124.476 207.586C123.757 207.945 122.968 208.125 122.108 208.125ZM122.108 206.219C122.806 206.219 123.4 205.971 123.89 205.477C124.384 204.982 124.632 204.357 124.632 203.602C124.632 202.841 124.387 202.216 123.897 201.727C123.408 201.232 122.812 200.984 122.108 200.984C121.4 200.984 120.801 201.229 120.312 201.719C119.827 202.208 119.585 202.836 119.585 203.602C119.585 204.362 119.827 204.99 120.312 205.484C120.801 205.974 121.4 206.219 122.108 206.219ZM133.464 199.203V200.961H131.292V208H129.042V200.961H127.847V199.203H129.042V198.719C129.042 197.729 129.255 197 129.682 196.531C130.11 196.062 130.823 195.828 131.823 195.828C132.292 195.828 132.839 195.875 133.464 195.969V197.586C132.891 197.466 132.427 197.456 132.073 197.555C131.797 197.591 131.597 197.706 131.472 197.898C131.352 198.086 131.292 198.357 131.292 198.711V199.203H133.464ZM139.713 196.797H147.378V198.711H142.112V201.57H146.893V203.477H142.112V206.086H147.62V208H139.713V196.797ZM158.248 199.203L155.217 203.602L158.248 208H155.733L153.577 204.898L151.42 208H148.897L151.928 203.602L148.897 199.203H151.42L153.577 202.305L155.733 199.203H158.248ZM165.057 208.125C164.323 208.125 163.679 208 163.127 207.75C162.575 207.5 162.174 207.151 161.924 206.703V211.203H159.674V199.203H161.83L161.924 200.492C162.403 199.544 163.448 199.07 165.057 199.07C165.635 199.07 166.177 199.185 166.682 199.414C167.192 199.638 167.632 199.948 168.002 200.344C168.377 200.734 168.671 201.214 168.885 201.781C169.104 202.344 169.213 202.951 169.213 203.602C169.213 204.253 169.104 204.862 168.885 205.43C168.671 205.992 168.377 206.469 168.002 206.859C167.632 207.25 167.192 207.56 166.682 207.789C166.177 208.013 165.635 208.125 165.057 208.125ZM164.448 200.984C163.744 200.984 163.148 201.232 162.658 201.727C162.169 202.216 161.924 202.841 161.924 203.602C161.924 204.362 162.166 204.99 162.651 205.484C163.14 205.974 163.739 206.219 164.448 206.219C165.151 206.219 165.742 205.974 166.221 205.484C166.705 204.99 166.948 204.362 166.948 203.602C166.948 202.846 166.705 202.221 166.221 201.727C165.737 201.232 165.145 200.984 164.448 200.984ZM175.389 199.07C176.087 199.07 176.732 199.193 177.326 199.438C177.925 199.682 178.433 200.029 178.85 200.477C179.272 200.919 179.592 201.471 179.811 202.133C180.029 202.789 180.115 203.513 180.068 204.305H172.951C173.087 204.924 173.378 205.419 173.826 205.789C174.274 206.159 174.795 206.344 175.389 206.344C175.904 206.344 176.36 206.214 176.756 205.953C177.157 205.688 177.467 205.318 177.686 204.844L179.615 205.766C179.219 206.5 178.641 207.078 177.881 207.5C177.121 207.917 176.29 208.125 175.389 208.125C174.524 208.125 173.732 207.945 173.014 207.586C172.3 207.227 171.725 206.701 171.287 206.008C170.85 205.31 170.631 204.508 170.631 203.602C170.631 202.695 170.85 201.893 171.287 201.195C171.725 200.497 172.3 199.969 173.014 199.609C173.732 199.25 174.524 199.07 175.389 199.07ZM175.389 200.859C174.764 200.859 174.23 201.044 173.787 201.414C173.35 201.779 173.071 202.273 172.951 202.898H177.834C177.709 202.273 177.428 201.779 176.99 201.414C176.553 201.044 176.019 200.859 175.389 200.859ZM181.682 199.203H183.838L183.932 200.305C184.286 199.841 184.697 199.521 185.166 199.344C185.64 199.161 186.265 199.07 187.041 199.07V200.984C186.051 200.984 185.286 201.221 184.744 201.695C184.202 202.164 183.932 202.799 183.932 203.602V208H181.682V199.203ZM189.771 198.047C189.396 198.047 189.079 197.917 188.818 197.656C188.558 197.396 188.427 197.078 188.427 196.703C188.427 196.339 188.558 196.026 188.818 195.766C189.079 195.505 189.396 195.375 189.771 195.375C190.136 195.375 190.448 195.505 190.709 195.766C190.969 196.026 191.099 196.339 191.099 196.703C191.099 197.078 190.969 197.396 190.709 197.656C190.448 197.917 190.136 198.047 189.771 198.047ZM188.638 199.203H190.888V208H188.638V199.203ZM197.15 199.07C197.848 199.07 198.494 199.193 199.088 199.438C199.686 199.682 200.194 200.029 200.611 200.477C201.033 200.919 201.353 201.471 201.572 202.133C201.791 202.789 201.877 203.513 201.83 204.305H194.713C194.848 204.924 195.14 205.419 195.588 205.789C196.035 206.159 196.556 206.344 197.15 206.344C197.666 206.344 198.121 206.214 198.517 205.953C198.918 205.688 199.228 205.318 199.447 204.844L201.377 205.766C200.981 206.5 200.403 207.078 199.642 207.5C198.882 207.917 198.051 208.125 197.15 208.125C196.285 208.125 195.494 207.945 194.775 207.586C194.061 207.227 193.486 206.701 193.048 206.008C192.611 205.31 192.392 204.508 192.392 203.602C192.392 202.695 192.611 201.893 193.048 201.195C193.486 200.497 194.061 199.969 194.775 199.609C195.494 199.25 196.285 199.07 197.15 199.07ZM197.15 200.859C196.525 200.859 195.991 201.044 195.548 201.414C195.111 201.779 194.832 202.273 194.713 202.898H199.595C199.47 202.273 199.189 201.779 198.752 201.414C198.314 201.044 197.78 200.859 197.15 200.859ZM209.802 208V203.602C209.802 202.742 209.654 202.091 209.357 201.648C209.06 201.206 208.578 200.984 207.912 200.984C207.203 200.984 206.656 201.221 206.271 201.695C205.886 202.164 205.693 202.799 205.693 203.602V208H203.443V199.203H205.599L205.693 200.492C206.224 199.544 207.216 199.07 208.669 199.07C209.867 199.07 210.729 199.456 211.255 200.227C211.781 200.997 212.044 202.122 212.044 203.602V208H209.802ZM218.353 206.266C218.811 206.266 219.225 206.154 219.595 205.93C219.965 205.701 220.254 205.37 220.462 204.938L222.525 205.773C222.155 206.497 221.592 207.07 220.837 207.492C220.087 207.914 219.259 208.125 218.353 208.125C217.488 208.125 216.697 207.945 215.978 207.586C215.259 207.227 214.681 206.701 214.243 206.008C213.806 205.31 213.587 204.508 213.587 203.602C213.587 202.695 213.806 201.893 214.243 201.195C214.681 200.497 215.259 199.969 215.978 199.609C216.697 199.25 217.488 199.07 218.353 199.07C219.259 199.07 220.087 199.281 220.837 199.703C221.592 200.125 222.155 200.698 222.525 201.422L220.462 202.266C220.254 201.833 219.965 201.505 219.595 201.281C219.225 201.052 218.811 200.938 218.353 200.938C217.644 200.938 217.046 201.185 216.556 201.68C216.072 202.174 215.829 202.815 215.829 203.602C215.829 204.383 216.072 205.023 216.556 205.523C217.046 206.018 217.644 206.266 218.353 206.266ZM228.474 199.07C229.172 199.07 229.818 199.193 230.411 199.438C231.01 199.682 231.518 200.029 231.935 200.477C232.357 200.919 232.677 201.471 232.896 202.133C233.114 202.789 233.2 203.513 233.153 204.305H226.036C226.172 204.924 226.463 205.419 226.911 205.789C227.359 206.159 227.88 206.344 228.474 206.344C228.989 206.344 229.445 206.214 229.841 205.953C230.242 205.688 230.552 205.318 230.771 204.844L232.7 205.766C232.304 206.5 231.726 207.078 230.966 207.5C230.206 207.917 229.375 208.125 228.474 208.125C227.609 208.125 226.818 207.945 226.099 207.586C225.385 207.227 224.81 206.701 224.372 206.008C223.935 205.31 223.716 204.508 223.716 203.602C223.716 202.695 223.935 201.893 224.372 201.195C224.81 200.497 225.385 199.969 226.099 199.609C226.818 199.25 227.609 199.07 228.474 199.07ZM228.474 200.859C227.849 200.859 227.315 201.044 226.872 201.414C226.435 201.779 226.156 202.273 226.036 202.898H230.919C230.794 202.273 230.513 201.779 230.075 201.414C229.638 201.044 229.104 200.859 228.474 200.859Z" fill="white"/>
</g>
<defs>
<clipPath id="clip0_2273_7">
<rect width="240" height="242" rx="8" fill="white"/>
</clipPath>
</defs>
</svg>
