<svg width="220" height="25" viewBox="0 0 220 25" fill="none" xmlns="http://www.w3.org/2000/svg">
<path d="M12.5071 24.75C9.49305 24.75 6.95205 24.332 4.88405 23.496C2.81605 22.638 1.38605 21.329 0.594053 19.569C0.198053 18.601 5.27501e-05 17.567 5.27501e-05 16.467H5.90705C5.95105 17.039 6.06105 17.545 6.23705 17.985C6.65505 18.887 7.40305 19.547 8.48105 19.965C9.58105 20.383 10.9451 20.592 12.5731 20.592C14.0031 20.592 15.2351 20.438 16.2691 20.13C17.3251 19.8 18.0071 19.305 18.3151 18.645C18.4251 18.403 18.4801 18.106 18.4801 17.754C18.4801 17.402 18.4251 17.116 18.3151 16.896C18.0951 16.39 17.6441 15.983 16.9621 15.675C16.2801 15.345 15.4991 15.092 14.6191 14.916C13.7391 14.718 12.6171 14.52 11.2531 14.322C10.9011 14.256 10.2521 14.146 9.30605 13.992C7.06205 13.574 5.24705 13.024 3.86105 12.342C2.49705 11.66 1.54005 10.725 0.990053 9.537C0.704053 8.877 0.561053 8.096 0.561053 7.194C0.561053 6.358 0.715053 5.566 1.02305 4.818C1.48505 3.762 2.25505 2.882 3.33305 2.178C4.43305 1.452 5.74205 0.913001 7.26005 0.561001C8.77805 0.187001 10.4171 5.96046e-07 12.1771 5.96046e-07C14.9271 5.96046e-07 17.3031 0.429001 19.3051 1.287C21.3071 2.145 22.6821 3.41 23.4301 5.082C23.7821 5.896 23.9801 6.842 24.0241 7.92H18.0841C18.0621 7.414 17.9411 6.93 17.7211 6.468C17.0171 4.862 15.1691 4.059 12.1771 4.059C10.8791 4.059 9.73505 4.213 8.74505 4.521C7.75505 4.829 7.11705 5.302 6.83105 5.94C6.74305 6.116 6.69905 6.336 6.69905 6.6C6.69905 6.886 6.74305 7.128 6.83105 7.326C7.02905 7.766 7.42505 8.14 8.01905 8.448C8.63505 8.734 9.33905 8.976 10.1311 9.174C10.9451 9.35 12.0121 9.548 13.3321 9.768L15.0151 10.065C16.5771 10.351 17.9411 10.681 19.1071 11.055C20.2951 11.407 21.3401 11.891 22.2421 12.507C23.1441 13.123 23.8041 13.893 24.2221 14.817C24.5521 15.587 24.7171 16.412 24.7171 17.292C24.7171 18.26 24.5301 19.151 24.1561 19.965C23.4301 21.571 22.0331 22.77 19.9651 23.562C17.9191 24.354 15.4331 24.75 12.5071 24.75ZM31.5238 0.726001H51.5548V5.082H37.2328V10.197H51.4558V14.454H37.2328V19.668H51.5548V24.024H31.5238V0.726001ZM66.8869 15.477H64.4449V24.024H58.7359V0.726001H72.4309C74.5429 0.726001 76.3249 1.078 77.7769 1.782C79.2509 2.486 80.2849 3.509 80.8789 4.851C81.2749 5.731 81.4729 6.776 81.4729 7.986C81.4729 9.328 81.2529 10.494 80.8129 11.484C80.2849 12.672 79.4379 13.607 78.2719 14.289C77.1279 14.949 75.6979 15.334 73.9819 15.444L83.2879 24.024H75.8629L66.8869 15.477ZM64.4449 11.583H70.9789C72.2109 11.583 73.1899 11.462 73.9159 11.22C74.6419 10.956 75.1589 10.494 75.4669 9.834C75.6429 9.46 75.7309 8.921 75.7309 8.217C75.7309 7.623 75.6429 7.15 75.4669 6.798C75.1809 6.138 74.6529 5.665 73.8829 5.379C73.1349 5.093 72.1669 4.95 70.9789 4.95H64.4449V11.583ZM114.692 0.726001L102.878 24.024H96.5086L84.6286 0.726001H91.0306L99.6766 18.546L108.323 0.726001H114.692ZM119.928 0.726001H125.637V24.024H119.928V0.726001ZM147.531 24.75C144.011 24.75 141.019 24.134 138.555 22.902C136.091 21.648 134.353 19.855 133.341 17.523C132.659 15.961 132.318 14.245 132.318 12.375C132.318 10.505 132.659 8.8 133.341 7.26C134.023 5.72 135.035 4.411 136.377 3.333C137.741 2.233 139.369 1.408 141.261 0.858001C143.175 0.286001 145.276 5.96046e-07 147.564 5.96046e-07C149.896 5.96046e-07 152.052 0.319 154.032 0.957C156.034 1.573 157.706 2.475 159.048 3.663C160.016 4.565 160.764 5.599 161.292 6.765C161.842 7.909 162.15 9.152 162.216 10.494H156.21C156.1 9.768 155.869 9.097 155.517 8.481C155.187 7.865 154.758 7.326 154.23 6.864C153.482 6.16 152.536 5.632 151.392 5.28C150.27 4.928 149.016 4.752 147.63 4.752C145.54 4.752 143.758 5.126 142.284 5.874C140.81 6.6 139.765 7.656 139.149 9.042C138.687 10.076 138.456 11.187 138.456 12.375C138.456 13.585 138.676 14.685 139.116 15.675C139.732 17.105 140.777 18.183 142.251 18.909C143.747 19.635 145.529 19.998 147.597 19.998C149.027 19.998 150.336 19.822 151.524 19.47C152.712 19.096 153.691 18.557 154.461 17.853C154.967 17.369 155.374 16.83 155.682 16.236C156.012 15.642 156.199 15.004 156.243 14.322H162.249C162.183 15.708 161.886 16.973 161.358 18.117C160.83 19.239 160.082 20.229 159.114 21.087C157.772 22.297 156.1 23.21 154.098 23.826C152.096 24.442 149.907 24.75 147.531 24.75ZM168.809 0.726001H188.84V5.082H174.518V10.197H188.741V14.454H174.518V19.668H188.84V24.024H168.809V0.726001ZM207.439 24.75C204.425 24.75 201.884 24.332 199.816 23.496C197.748 22.638 196.318 21.329 195.526 19.569C195.13 18.601 194.932 17.567 194.932 16.467H200.839C200.883 17.039 200.993 17.545 201.169 17.985C201.587 18.887 202.335 19.547 203.413 19.965C204.513 20.383 205.877 20.592 207.505 20.592C208.935 20.592 210.167 20.438 211.201 20.13C212.257 19.8 212.939 19.305 213.247 18.645C213.357 18.403 213.412 18.106 213.412 17.754C213.412 17.402 213.357 17.116 213.247 16.896C213.027 16.39 212.576 15.983 211.894 15.675C211.212 15.345 210.431 15.092 209.551 14.916C208.671 14.718 207.549 14.52 206.185 14.322C205.833 14.256 205.184 14.146 204.238 13.992C201.994 13.574 200.179 13.024 198.793 12.342C197.429 11.66 196.472 10.725 195.922 9.537C195.636 8.877 195.493 8.096 195.493 7.194C195.493 6.358 195.647 5.566 195.955 4.818C196.417 3.762 197.187 2.882 198.265 2.178C199.365 1.452 200.674 0.913001 202.192 0.561001C203.71 0.187001 205.349 5.96046e-07 207.109 5.96046e-07C209.859 5.96046e-07 212.235 0.429001 214.237 1.287C216.239 2.145 217.614 3.41 218.362 5.082C218.714 5.896 218.912 6.842 218.956 7.92H213.016C212.994 7.414 212.873 6.93 212.653 6.468C211.949 4.862 210.101 4.059 207.109 4.059C205.811 4.059 204.667 4.213 203.677 4.521C202.687 4.829 202.049 5.302 201.763 5.94C201.675 6.116 201.631 6.336 201.631 6.6C201.631 6.886 201.675 7.128 201.763 7.326C201.961 7.766 202.357 8.14 202.951 8.448C203.567 8.734 204.271 8.976 205.063 9.174C205.877 9.35 206.944 9.548 208.264 9.768L209.947 10.065C211.509 10.351 212.873 10.681 214.039 11.055C215.227 11.407 216.272 11.891 217.174 12.507C218.076 13.123 218.736 13.893 219.154 14.817C219.484 15.587 219.649 16.412 219.649 17.292C219.649 18.26 219.462 19.151 219.088 19.965C218.362 21.571 216.965 22.77 214.897 23.562C212.851 24.354 210.365 24.75 207.439 24.75Z" fill="#B7ACDE"/>
</svg>
